# xmcd CD database file
#
# Track frame offsets:
#	150
#	22227
#	35182
#	71622
#	94587
#	106827
#	128992
#	147162
#	164490
#	182227
#	204182
#	232447
#
# Disc length: 3235 seconds
#
# Revision: 0
# Processed by: cddbd v1.5.2PL0 Copyright (c) Steve Scherf et al.
# Submitted via: CDex 1.51
#
DISCID=b30ca10c
DTITLE=Don Byron - A Fine Line
DYEAR=2000
DGENRE=Jazz
TTITLE0=Check Up
TTITLE1=Zwielight (Twilight)
TTITLE2=Glitter And Be Gay
TTITLE3=Basquiat
TTITLE4=It's Over
TTITLE5=Creepin'
TTITLE6=Nessun Dorma
TTITLE7=Soldier In The Rain
TTITLE8=Airwaves
TTITLE9=Reach Out I'll Be There
TTITLE10=The Ladies Who Lunch
TTITLE11=Larghetto
EXTD=YEAR: 2000
EXTT0=
EXTT1=
EXTT2=
EXTT3=
EXTT4=
EXTT5=
EXTT6=
EXTT7=
EXTT8=
EXTT9=
EXTT10=
EXTT11=
PLAYORDER=
